<svg x="0" y="0" width="300" height="300" version="1.1" xmlns="http://www.w3.org/2000/svg" xmlns:xlink="http://www.w3.org/1999/xlink"><g transform="translate(150,107.23619) scale(1.34378,1.34378)" data-paper-data="{&quot;description&quot;:&quot;Logo for d3c\n============\n\nThis logo was generated by MarkMaker and is composed of elements designed by others.\n\nThe font is Hind Colombo SemiBold designed by Indian Type Foundry and released under the OFL license via Google Fonts: https://www.google.com/fonts/specimen/Hind Colombo. The font includes this copyright statement: Copyright (c) 2015 Indian Type Foundry (info@indiantypefoundry.com)\n\nMarkMaker uses semantic data from the Princeton University WordNet database http://wordnet.princeton.edu and font descriptions from Google Fonts https://www.google.com/fonts.\n\nThis design is inspired by designs that past users of MarkMaker have liked. As a result, it may be visually similar to past or future designs generated by the system. There is no guarantee that it is unique, original, or suitable in any way for use as a logo.\n\n&quot;}" fill="#192929" stroke="none" stroke-width="1" stroke-linecap="butt" stroke-linejoin="miter" stroke-miterlimit="10" stroke-dasharray="" stroke-dashoffset="0" font-family="sans-serif" font-weight="normal" font-size="12" text-anchor="start" mix-blend-mode="normal"><g data-paper-data="{&quot;elementType&quot;:&quot;logo&quot;}"><g data-paper-data="{&quot;elementType&quot;:&quot;text&quot;}"><g transform="translate(-93.1,-33.2766)" data-paper-data="{&quot;baseline&quot;:70.7,&quot;elementType&quot;:&quot;row&quot;}"><g data-paper-data="{&quot;baselineProportion&quot;:0.9874301675977653,&quot;fontSize&quot;:100,&quot;baseline&quot;:70.7,&quot;elementType&quot;:&quot;word&quot;}"><path d="M52.9,100l-12,0l0,-7.9c-3.46667,5.73333 -8.56667,8.6 -15.3,8.6c-6.73333,0 -12.05,-2.53333 -15.95,-7.6c-3.9,-5.06667 -5.85,-11.4 -5.85,-19c0,-7.6 2.05,-13.75 6.15,-18.45c4.1,-4.7 9.4,-7.05 15.9,-7.05c6.5,0 11.51667,2.83333 15.05,8.5l0,-27.8l12,0l0,70.7 M28.25,58.8c0,0 -0.84167,0 -2.525,0c-1.68333,0 -3.70833,1.41667 -6.075,4.25c-2.36667,2.83333 -3.55,6.66667 -3.55,11.5c0,4.83333 1.16667,8.68333 3.5,11.55c2.33333,2.86667 5.26667,4.3 8.8,4.3c3.53333,0 6.5,-1.38333 8.9,-4.15c2.4,-2.76667 3.6,-6.75 3.6,-11.95c0,-5.2 -1.26667,-9.08333 -3.8,-11.65c-2.53333,-2.56667 -5.48333,-3.85 -8.85,-3.85z" data-paper-data="{&quot;elementType&quot;:&quot;letter&quot;,&quot;baseline&quot;:70.7,&quot;baselineProportion&quot;:0.9901960784313725,&quot;fontSize&quot;:100}"></path><path transform="translate(16.1,0)" d="M102.9,82c0,5.46667 -2.01667,9.91667 -6.05,13.35c-4.03333,3.43333 -9.55,5.15 -16.55,5.15c-7,0 -12.86667,-1.1 -17.6,-3.3l0,-11.7c5.2,2.8 10.66667,4.2 16.4,4.2c3.6,0 6.41667,-0.85 8.45,-2.55c2.03333,-1.7 3.05,-3.88333 3.05,-6.55c0,-5.8 -4.7,-8.7 -14.1,-8.7l-3.8,0l0,-10.1l3.8,0c3.53333,0 6.5,-0.76667 8.9,-2.3c2.4,-1.53333 3.6,-3.7 3.6,-6.5c0,-5.6 -3.43333,-8.4 -10.3,-8.4c-4.53333,0 -9.06667,1.4 -13.6,4.2l0,-11.3c4.53333,-2.46667 9.3,-3.7 14.3,-3.7c6.86667,0 12.25,1.66667 16.15,5c3.9,3.33333 5.85,7.6 5.85,12.8c0,7.53333 -3.43333,12.66667 -10.3,15.4c3.73333,0.93333 6.63333,2.68333 8.7,5.25c2.06667,2.56667 3.1,5.81667 3.1,9.75z" data-paper-data="{&quot;elementType&quot;:&quot;letter&quot;,&quot;baseline&quot;:66.2,&quot;baselineProportion&quot;:0.992503748125937,&quot;fontSize&quot;:100}"></path><path transform="translate(32.2,0)" d="M137,100.9c-7.8,0 -14.11667,-2.46667 -18.95,-7.4c-4.83333,-4.93333 -7.23333,-11.13333 -7.2,-18.6c0.03333,-7.46667 2.43333,-13.73333 7.2,-18.8c4.76667,-5.06667 11.28333,-7.6 19.55,-7.6c4.93333,0 9.13333,0.93333 12.6,2.8l0,10.6c-3.33333,-2.13333 -7.23333,-3.2 -11.7,-3.2c-4.46667,0 -8.13333,1.46667 -11,4.4c-2.86667,2.93333 -4.33333,6.83333 -4.4,11.7c0.13333,4.8 1.58333,8.66667 4.35,11.6c2.76667,2.93333 6.36667,4.4 10.8,4.4c4.43333,0 8.41667,-1.13333 11.95,-3.4l0,10.4c-3.53333,2.06667 -7.93333,3.1 -13.2,3.1z" data-paper-data="{&quot;elementType&quot;:&quot;letter&quot;,&quot;baseline&quot;:51.5,&quot;baselineProportion&quot;:0.9828244274809159,&quot;fontSize&quot;:100}"></path></g></g></g></g></g></svg>